<svg width="167" height="83" viewBox="0 0 167 83" fill="none" xmlns="http://www.w3.org/2000/svg" style="background-color:#004141; padding: 5px">
<g clip-path="url(#clip0_0_1)">
<path d="M4.97329 70.0785H1.92532L1.37665 71.2406H0L2.74464 65.5114H4.15396L6.8986 71.2406H5.52195L4.97329 70.0785ZM4.46529 69.0143L3.4493 66.862L2.43331 69.0143H4.46529Z" fill="#fff"/>
<path d="M15.9346 68.024V68.2038C15.9346 70.512 14.476 71.3305 12.9113 71.3305C11.1907 71.3305 9.52734 70.3648 9.52734 68.3677C9.52734 66.3705 11.2067 65.4128 12.9846 65.4128C13.9433 65.4128 15.0086 65.6992 15.7046 66.1168L15.336 67.2049C14.7953 66.8693 13.984 66.5503 13.0586 66.5503C11.8133 66.5503 10.8627 67.0824 10.8627 68.351C10.8627 69.6196 11.854 70.1924 12.8946 70.1924C13.7713 70.1924 14.468 69.7748 14.5826 69.0383H13.0093V68.0234H15.934L15.9346 68.024Z" fill="#fff"/>
<path d="M22.7279 68.7939V69.8414H21.9252V71.2405H20.5813V69.8414H16.6406V68.7286L20.2619 65.5121H21.9252V68.7939H22.7279V68.7939ZM18.1073 68.7939H20.5813V66.5922L18.1073 68.7939Z" fill="#fff"/>
<path d="M23.2678 69.9719C24.0131 69.8168 27.5284 69.0796 27.5284 67.476C27.5284 66.7967 26.9137 66.551 26.1191 66.551C25.0864 66.551 24.1858 66.9598 23.6204 67.2875L23.2598 66.1907C23.9478 65.7898 25.0131 65.4135 26.1931 65.4135C27.5611 65.4135 28.8637 65.929 28.8637 67.3534C28.8637 69.0802 26.9877 69.7595 25.7997 70.1031H28.8804V71.2406H23.2684V69.9719H23.2678Z" fill="#fff"/>
<path d="M31.6328 68.9737C31.6328 67.4839 32.7468 66.6415 34.2135 66.6415C34.9101 66.6415 35.5408 66.8213 36.1881 67.1816L35.7541 68.1719C35.2708 67.8196 34.7874 67.6644 34.2301 67.6644C33.4928 67.6644 32.8701 68.1226 32.8701 68.9577C32.8701 69.7928 33.4848 70.2836 34.2221 70.2836C34.7794 70.2836 35.2628 70.1038 35.7708 69.7515L36.2214 70.7418C35.5414 71.1673 34.8781 71.3391 34.1981 71.3391C32.7395 71.3391 31.6335 70.4554 31.6335 68.9737H31.6328Z" fill="#fff"/>
<path d="M36.6875 69.0063C36.6875 67.6065 37.7362 66.6408 39.2028 66.6408C40.6695 66.6408 41.6855 67.5985 41.6855 68.9976C41.6855 70.3968 40.6535 71.3384 39.2028 71.3384C37.7522 71.3384 36.6875 70.3888 36.6875 69.0063V69.0063ZM40.4728 68.9983C40.4728 68.2371 39.9321 67.7377 39.1868 67.7377C38.4415 67.7377 37.9248 68.2371 37.9248 68.9983C37.9248 69.7595 38.4575 70.2423 39.1868 70.2423C39.9161 70.2423 40.4728 69.7515 40.4728 68.9983Z" fill="#fff"/>
<path d="M49.4594 68.4662V71.2406H48.2388V68.5728C48.2388 68.0733 48.0254 67.7623 47.5668 67.7623C46.9935 67.7623 46.6081 68.2618 46.5508 69.26V71.2406H45.3381V68.5728C45.3381 68.0733 45.1168 67.7623 44.6661 67.7623C44.0435 67.7623 43.6422 68.335 43.6422 69.5464V71.2406H42.4375V66.7394H43.6422V67.8116C43.8795 67.1323 44.3715 66.6415 45.0515 66.6415C45.7721 66.6415 46.2801 67.0344 46.4688 67.771C46.7228 67.1083 47.2308 66.6415 47.9514 66.6415C48.8774 66.6415 49.4588 67.2802 49.4588 68.4669L49.4594 68.4662Z" fill="#fff"/>
<path d="M55.4732 68.9737C55.4732 70.3568 54.5392 71.3305 53.2772 71.3305C52.5073 71.3305 51.9006 70.9542 51.5486 70.3322V72.7955H50.3359V66.7554H51.5486V67.6311C51.8926 67.0171 52.4993 66.6408 53.2772 66.6408C54.5552 66.6408 55.4732 67.6065 55.4732 68.973V68.9737ZM54.2359 68.9816C54.2359 68.2285 53.7032 67.6884 52.9006 67.6884C52.0979 67.6884 51.5486 68.2285 51.5486 68.9816C51.5486 69.7348 52.0893 70.2749 52.9006 70.2749C53.7119 70.2749 54.2359 69.7348 54.2359 68.9816Z" fill="#fff"/>
<path d="M60.5875 68.5481V71.2405H59.3668V70.1278C58.9488 70.8969 58.2688 71.3145 57.4335 71.3145C56.7455 71.3145 56.1309 70.9788 56.1309 70.2423C56.1309 68.9983 58.1788 68.5481 59.3508 68.3517C59.2688 67.8609 58.8922 67.6724 58.3428 67.6724C57.7368 67.6724 57.0729 67.9095 56.6062 68.2205L56.2295 67.2708C56.8275 66.8946 57.5975 66.6408 58.4008 66.6408C59.5642 66.6408 60.5882 67.1316 60.5882 68.5474L60.5875 68.5481ZM59.3668 69.0143C58.1135 69.268 57.4248 69.5051 57.4248 69.9473C57.4248 70.2256 57.7035 70.3322 57.9495 70.3322C58.5802 70.3322 59.2935 69.6776 59.3668 69.0143Z" fill="#fff"/>
<path d="M66.1742 68.7119V71.2405H64.9695V68.9084C64.9695 68.1552 64.6415 67.7623 63.9949 67.7623C63.2655 67.7623 62.6675 68.4009 62.6675 69.8987V71.2405H61.4629V66.7394H62.6675V67.9914C62.9542 67.2056 63.5522 66.6408 64.4042 66.6408C65.5022 66.6408 66.1735 67.3527 66.1735 68.7113L66.1742 68.7119Z" fill="#fff"/>
<path d="M71.9988 66.7394L69.8602 71.2652C69.2949 72.4273 68.8769 73 67.8282 73C67.5495 73 67.2222 72.9674 66.8202 72.8934L66.9922 71.7966C67.3282 71.8865 67.5982 71.9278 67.8282 71.9278C68.2789 71.9278 68.4589 71.6335 68.6309 71.2565L68.6715 71.1666L66.5742 66.7387H67.8849L69.2942 69.8074L70.6955 66.7387H71.9982L71.9988 66.7394Z" fill="#fff"/>
<path d="M35.8733 0C36.2527 0.0379591 36.6327 0 37.012 0H38.96C39.0613 0 39.15 0.012653 39.2506 0.012653C39.9973 0 40.756 0.12653 41.5026 0.189795C41.8946 0.215102 42.2746 0.278367 42.6539 0.341632C43.1346 0.41755 43.6279 0.480815 44.1086 0.582039C44.4373 0.657958 44.7666 0.733876 45.1079 0.784488C45.5126 0.847753 45.8926 0.96163 46.2972 1.0502C47.0559 1.22734 47.8026 1.44178 48.5492 1.68219C49.4219 1.96055 50.2952 2.27621 51.1552 2.61785C51.9899 2.94682 52.8125 3.3131 53.6098 3.69269C54.4072 4.07228 55.2038 4.47651 55.9505 4.94401C56.1405 5.05788 56.3805 5.12115 56.5705 5.24768C56.8111 5.38686 57.0258 5.564 57.2665 5.72783C57.2791 5.74048 57.3045 5.74048 57.3171 5.75313C57.3298 5.8164 57.3551 5.85436 57.4311 5.8417C58.1398 6.25859 58.8105 6.72675 59.4678 7.2069C60.3031 7.81358 61.1124 8.44556 61.8844 9.14082C62.0238 9.26735 62.2004 9.36857 62.3144 9.52041C62.2764 9.60898 62.3144 9.63428 62.3904 9.60898C62.8458 9.95061 63.2378 10.3675 63.6431 10.7717C64.1997 11.3151 64.7311 11.8719 65.2497 12.4532C65.8317 13.0979 66.3884 13.7678 66.9197 14.4631C67.0717 14.6529 67.2237 14.83 67.413 14.9938C67.7037 15.2469 67.9317 15.5373 68.033 15.9168C68.0457 15.9801 68.071 16.0434 68.0584 16.1193C68.0204 16.2711 67.9317 16.3217 67.7797 16.2585C67.5904 16.1826 67.4257 16.0434 67.299 15.9042C67.1344 15.7271 67.0084 15.5246 66.8944 15.3102C66.8311 15.1963 66.7804 15.0698 66.8057 14.9439C66.8437 14.7668 66.7677 14.6529 66.6664 14.527C66.3497 14.1481 66.0464 13.7558 65.7304 13.3896C64.9964 12.5298 64.2377 11.6827 63.4277 10.8989C62.7191 10.2037 61.9604 9.54638 61.2011 8.90174C60.6444 8.43424 60.0751 7.99139 59.4931 7.5492C58.8731 7.0817 58.2151 6.63885 57.5578 6.22196C57.5198 6.19666 57.4565 6.14604 57.4311 6.1587C57.2038 6.32319 57.0771 6.12074 56.9251 6.03217C56.7985 5.95625 56.7098 5.95625 56.5838 6.04482C56.1032 6.36114 55.5592 6.52497 55.0152 6.71476C54.6738 6.82864 54.3445 6.94252 53.9905 7.01844C53.8765 7.04374 53.8512 7.11966 53.8385 7.23354C53.8005 7.60048 53.6232 7.87818 53.2692 8.00471C53.0665 8.08062 52.8518 8.08062 52.6365 8.08062C52.6112 8.08062 52.5732 8.08063 52.5478 8.06797C52.2952 8.00471 52.1305 8.09328 51.9785 8.32103C51.4345 9.11751 50.8779 9.88868 50.3212 10.6598C50.2368 10.7779 50.2452 10.8834 50.3465 10.9762C50.5492 11.166 50.7259 11.3558 50.7892 11.6335C50.8779 12.0131 50.8019 12.354 50.5739 12.645C50.4472 12.8095 50.4345 12.8475 50.6119 12.9993C51.0165 13.3283 51.4212 13.6566 51.8265 13.9856C52.3832 14.4404 52.9398 14.8833 53.4838 15.3381C53.4965 15.4773 53.6105 15.4773 53.6992 15.5026C53.8512 15.6292 54.0152 15.7557 54.1672 15.8949C54.2558 15.9708 54.3318 15.9834 54.4205 15.8949C54.8632 15.3768 55.5592 15.4527 56.0652 15.7177C56.3178 15.8569 56.5585 16.0214 56.7231 16.2738C56.7991 16.3877 56.8625 16.3877 56.9765 16.3118C57.4825 15.9828 58.0011 15.6545 58.5071 15.3255C58.8611 15.0977 59.2031 14.8833 59.5445 14.6555C59.5825 14.6302 59.6205 14.5923 59.6585 14.567C59.7851 14.4911 59.7978 14.4151 59.7218 14.2886C59.5825 14.0735 59.4811 13.8464 59.4811 13.5807C59.4811 13.3782 59.5191 13.1891 59.7091 13.0752C59.8991 12.974 60.1138 12.9993 60.2911 13.1132C60.5184 13.2524 60.7211 13.4422 60.8478 13.6819C60.9491 13.8717 61.0624 14.0615 61.0251 14.2759C60.9744 14.5543 61.1264 14.7308 61.3031 14.8953C61.5938 15.1357 61.8471 15.4134 62.1004 15.6918C62.0878 15.7677 62.1258 15.793 62.1891 15.8056C62.6698 16.2232 63.0998 16.7033 63.5431 17.1582C64.3271 17.9547 65.0864 18.7511 65.8584 19.5603C65.9217 19.6235 65.9851 19.6868 66.0737 19.6994C66.1751 19.7121 66.2257 19.7754 66.2637 19.8639C66.4917 20.3694 66.6557 20.8882 66.6557 21.4569C66.6557 21.5075 66.6684 21.5834 66.6051 21.6087C66.5417 21.634 66.5037 21.5708 66.4784 21.5201C66.3897 21.381 66.3137 21.2291 66.2884 21.078C66.2251 20.7869 66.0857 20.5092 66.0857 20.2056C66.0857 20.1043 66.0097 20.0537 65.9591 19.9905C65.5671 19.5729 65.1744 19.1687 64.7697 18.7518C64.1244 18.0818 63.4791 17.4119 62.8344 16.742C62.2778 16.1606 61.7211 15.5919 61.1518 15.0225C61.0884 14.9592 61.0124 14.82 60.9238 14.8833C60.8098 14.9592 60.9238 15.0857 60.9618 15.1617C61.2651 15.9581 61.5818 16.742 61.8724 17.5258C61.9738 17.7788 62.0624 18.0192 62.2644 18.221C62.4164 18.3729 62.4291 18.588 62.4164 18.7898C62.4164 18.853 62.4038 18.9289 62.3278 18.9542C62.2518 18.9795 62.2011 18.9289 62.1504 18.891C61.9731 18.7518 61.8978 18.55 61.8851 18.3602C61.8598 17.9054 61.6444 17.5258 61.5058 17.1215C61.3031 16.5275 61.0631 15.9461 60.8478 15.3641C60.8098 15.2755 60.7718 15.187 60.7338 15.0984C60.6831 14.9845 60.6198 14.8959 60.4811 14.8959C60.4558 14.8959 60.4178 14.8833 60.3924 14.8706C60.1771 14.6808 59.9878 14.8074 59.7978 14.9339C59.1271 15.3634 58.4571 15.8063 57.7865 16.2485C57.5965 16.375 57.4198 16.4889 57.2171 16.6028C57.0525 16.6913 57.0271 16.8052 57.0905 16.969C57.1665 17.1968 57.1918 17.4499 57.1665 17.6896C57.1158 18.271 56.8751 18.6126 56.3438 18.7898C55.9772 18.9036 55.5972 18.853 55.2432 18.6759C54.6485 18.3722 54.2818 17.8794 54.1045 17.2474C54.0412 17.045 54.0538 16.8179 54.0918 16.6154C54.1298 16.4003 54.0412 16.2745 53.8892 16.1479C53.3578 15.731 52.8392 15.3008 52.3079 14.884C51.6372 14.3405 50.9665 13.8091 50.3092 13.2657C50.1699 13.1518 50.0432 13.1012 49.8665 13.1771C49.4492 13.3543 49.0192 13.329 48.5886 13.1898C48.3226 13.1012 48.1079 12.9494 47.9179 12.7602C47.8166 12.659 47.7406 12.6337 47.5886 12.6843C47.3232 12.7856 47.0319 12.8362 46.7539 12.9121C46.3112 13.0386 45.8686 13.1651 45.4253 13.2917C45.0206 13.4056 44.6286 13.5068 44.2233 13.608C44.1599 13.6207 44.0966 13.6586 44.0333 13.6586C43.7673 13.6966 43.6539 13.8231 43.6286 14.1135C43.6033 14.4424 43.3253 14.6189 43.0466 14.7454C42.7433 14.8846 42.4139 14.9352 42.0853 14.7961C41.9333 14.7328 41.8193 14.7581 41.706 14.8973C41.124 15.5419 40.5293 16.1739 39.922 16.8066C39.112 17.6663 38.3027 18.5134 37.4927 19.3731C37.1893 19.7021 36.8853 20.0304 36.5947 20.3467C36.5018 20.4564 36.506 20.5618 36.6073 20.6631C36.936 20.9794 37.1387 21.3583 37.1387 21.8132C37.1513 22.3692 36.898 22.8121 36.4807 23.1657C36.3202 23.3007 36.3076 23.4525 36.4427 23.6212C37.012 24.3544 37.594 25.0623 38.1887 25.7702C38.176 25.8335 38.2013 25.8841 38.2773 25.8841L38.29 25.8968C38.29 25.96 38.328 26.0106 38.3913 26.0233C38.404 26.0359 38.4166 26.0612 38.4166 26.0739C38.4166 26.1372 38.442 26.1751 38.518 26.1751L38.5307 26.1878C38.5433 26.2763 38.5813 26.3523 38.6826 26.3649C38.784 26.5674 38.974 26.6939 39.0873 26.883C39.138 26.9589 39.214 26.9463 39.2646 26.921C39.366 26.8577 39.4546 26.8704 39.5686 26.921C39.6826 26.9843 39.7833 27.0475 39.8466 27.1614C40.024 27.4524 39.8846 27.6675 39.7453 27.8187C39.568 27.9958 39.3533 27.9958 39.1506 27.9199C38.948 27.8313 38.822 27.6669 38.8593 27.4391C38.8846 27.2873 38.8213 27.186 38.7326 27.0728C37.9233 26.0866 37.126 25.1009 36.316 24.1147C36.2147 23.9881 36.114 23.8616 36 23.7351C35.8607 23.5706 35.7847 23.5453 35.608 23.6086C35.216 23.7477 34.8367 23.7224 34.444 23.6086C34.052 23.5073 33.7227 23.3302 33.4574 23.0398C33.356 22.926 33.2674 22.926 33.154 22.9892C32.8627 23.1411 32.5847 23.3056 32.294 23.4567C31.3074 23.9748 30.3454 24.5442 29.3587 25.0497C29.1434 25.1635 28.9161 25.2774 28.7007 25.404C28.5741 25.4799 28.5234 25.5558 28.5107 25.6943C28.4601 26.2883 28.1694 26.7312 27.6381 26.9962C27.1448 27.2366 26.5628 27.2366 26.1708 26.8064C25.8548 26.4522 25.8421 26.0606 25.9934 25.6437C26.2088 25.0497 26.8534 24.6195 27.4481 24.6321C27.7514 24.6448 28.0047 24.746 28.2201 24.9611C28.3299 25.0708 28.4521 25.0876 28.5867 25.0117C29.5354 24.4936 30.4841 23.9748 31.4207 23.4567C31.9394 23.1784 32.4454 22.888 32.964 22.6096C33.078 22.5464 33.116 22.4958 33.078 22.3692C32.9007 21.7625 33.0907 21.2444 33.4827 20.7889C33.5925 20.6624 33.5967 20.5359 33.4954 20.4093C32.648 19.3725 31.7874 18.3362 30.9274 17.2994C30.2441 16.4776 29.5614 15.6558 28.8781 14.834C28.8527 14.7961 28.8147 14.7581 28.7894 14.7201C28.7134 14.5936 28.6247 14.5556 28.4734 14.6316C28.3341 14.7075 28.1694 14.7581 28.0181 14.8087C27.4741 14.9858 26.9301 15.1124 26.3608 15.0365C25.7028 14.9479 25.0701 14.7454 24.7034 14.1261C24.6401 14.0249 24.5768 14.0122 24.4634 14.0502C24.1215 14.1641 23.7675 14.2653 23.4261 14.3792C22.9581 14.5437 22.5155 14.7335 22.0475 14.9099C21.4401 15.1503 20.8455 15.428 20.2508 15.7064C19.0108 16.2751 17.8342 16.9451 16.6449 17.6024C16.2275 17.8301 15.8222 18.1078 15.4175 18.3609C15.3289 18.4241 15.2655 18.5001 15.2275 18.6266C15.0249 19.3725 14.6075 19.9918 13.9875 20.46C13.8609 20.5612 13.7975 20.6624 13.7595 20.8269C13.6202 21.4842 13.6835 22.1415 13.6582 22.7988C13.6455 23.5067 13.7342 24.2146 13.7975 24.9098C13.8482 25.4406 13.8989 25.972 13.9875 26.4901C14.0889 27.0968 14.1395 27.7035 14.2655 28.2975C14.3922 28.8915 14.4682 29.4982 14.6069 30.0929C14.6955 30.4345 14.7462 30.7882 14.8095 31.1424C14.8349 31.2816 14.8855 31.3449 15.0122 31.269C15.3409 31.1045 15.6449 31.2437 15.9229 31.3828C16.3909 31.6233 16.6315 32.0528 16.7575 32.5456C16.8969 33.089 16.8082 33.5951 16.5929 34.1006C16.5422 34.2271 16.5675 34.303 16.6689 34.3789C16.9095 34.5687 17.1495 34.7712 17.3902 34.9603C17.9468 35.4025 18.5162 35.8454 19.0728 36.2876C19.7435 36.8183 20.4142 37.3497 21.0968 37.8805C21.2361 37.7666 21.3375 37.6274 21.4888 37.5262C22.1088 37.1087 22.8421 37.1719 23.3615 37.6654C24.2215 38.4745 24.2088 39.941 23.2981 40.7374C23.0575 40.9399 22.7921 41.0911 22.4635 41.0911C22.2988 41.0911 22.2735 41.167 22.2735 41.3062C22.2481 41.8496 22.2355 42.3936 22.1721 42.9244C22.1088 43.4931 22.1088 44.0618 22.0455 44.6312C21.9948 45.0608 21.9821 45.5036 21.9441 45.9332C21.9315 46.0723 21.9568 46.1862 22.0328 46.3128C22.1721 46.5152 22.2228 46.7296 22.0961 46.97C21.9948 47.1472 21.9061 47.2358 21.7541 47.2231C21.6021 47.2105 21.4381 47.0839 21.4128 46.9068C21.3748 46.6537 21.3368 46.376 21.6155 46.2115C21.7041 46.1483 21.6788 46.0597 21.6915 45.9711C21.7421 45.3518 21.7928 44.7325 21.8308 44.1131C21.8815 43.2407 21.9575 42.381 22.0208 41.5086C22.0461 41.1796 21.9575 41.0531 21.6795 40.9146C21.0468 40.5982 20.7308 40.0675 20.6928 39.3596C20.6675 39.0186 20.6802 38.677 20.8195 38.3607C20.8701 38.2594 20.8448 38.1962 20.7561 38.1203C20.1488 37.6521 19.5415 37.1719 18.9342 36.6918C18.5042 36.3502 18.0742 36.0092 17.6435 35.6676C17.6308 35.617 17.6055 35.5663 17.5422 35.5663C17.5042 35.541 17.4662 35.5157 17.4282 35.4904C17.4155 35.4272 17.3775 35.4018 17.3142 35.4018C17.0355 35.1867 16.7702 34.9723 16.4915 34.7572C16.3015 34.6054 16.2889 34.6054 16.1375 34.7572C16.0235 34.8711 15.8849 34.9723 15.7329 35.0482C15.6189 35.1115 15.5935 35.1621 15.6315 35.3013C15.7962 35.87 15.9102 36.4387 16.0489 37.0081C16.1882 37.5642 16.3142 38.1329 16.4535 38.7023C16.4789 38.8162 16.5295 38.8794 16.6435 38.9174C16.9342 39.0186 17.0482 39.3216 16.9342 39.6C16.8582 39.7771 16.7062 39.8531 16.5169 39.8277C16.3522 39.8024 16.2009 39.6506 16.1755 39.4861C16.1629 39.3722 16.1502 39.2584 16.2262 39.1445C16.3022 39.0433 16.2895 38.9167 16.2515 38.8028C16.0362 38.0064 15.8595 37.2099 15.6695 36.4134C15.5809 36.0591 15.5175 35.6929 15.4162 35.3386C15.3782 35.1994 15.3275 35.1614 15.2009 35.1741C14.8469 35.2121 14.5429 35.0855 14.2522 34.8831C14.1129 34.7439 14.0749 34.7565 13.9615 34.9716C13.9109 34.997 13.8982 35.0349 13.8729 35.0855C13.8095 35.0982 13.7715 35.1361 13.7715 35.1994C12.9242 36.2869 12.1142 37.4117 11.4056 38.625C10.9502 39.3962 10.5456 40.18 10.2036 41.0018C10.1022 41.2549 10.0136 41.5326 9.92558 41.7983C9.88758 41.8995 9.91292 41.9881 9.95092 42.0767C10.1662 42.696 10.2169 43.328 10.1029 43.96C10.0522 44.2383 9.95092 44.5034 9.76158 44.7185C9.53359 44.9842 9.17959 45.0095 8.86359 44.807C8.58493 44.6173 8.40826 44.3269 8.26893 44.0359C8.1676 43.8208 8.0916 43.593 8.0536 43.3533C8.0156 43.1255 7.95227 43.037 7.72494 43.0116C7.33294 42.9737 6.94028 42.8598 6.54828 42.7965C6.30762 42.7586 6.08029 42.708 5.83962 42.6574C5.75096 42.6447 5.71296 42.6574 5.70029 42.7459C5.68762 42.8092 5.67496 42.8851 5.64962 42.9484C5.56096 43.1635 5.61162 43.3653 5.73829 43.5551C5.96629 43.896 6.19362 44.2503 6.42162 44.6046C6.44695 44.6552 6.48495 44.7185 6.53562 44.7311C6.91495 44.8703 6.90228 45.2119 6.91495 45.5276C6.91495 45.6035 6.88961 45.6921 6.80095 45.7047C6.72495 45.7301 6.67428 45.6541 6.63628 45.6035C6.49695 45.439 6.42095 45.2372 6.40828 45.0221C6.39562 44.9336 6.39562 44.845 6.34495 44.7691C6.02895 44.3522 5.78829 43.8967 5.50963 43.4545C5.49696 43.4419 5.48429 43.4292 5.45896 43.4292C5.1303 43.6063 4.99096 43.5431 4.7123 43.037C4.58563 43.0749 4.53497 43.2014 4.47163 43.3027C4.05431 43.9853 3.71231 44.7058 3.40898 45.4517C3.26965 45.806 3.33298 46.1343 3.43431 46.4633C3.52298 46.7163 3.48498 46.9567 3.49764 47.2091C3.49764 47.3103 3.43431 47.3863 3.35831 47.4116C3.26965 47.4495 3.18098 47.3863 3.13031 47.323C3.00365 47.1838 2.90232 47.0193 2.81432 46.8429C2.64965 46.4633 2.53632 46.059 2.44765 45.6548C2.42232 45.5409 2.39699 45.4144 2.43499 45.3132C2.49832 45.0854 2.43499 44.8963 2.37165 44.6938C2.15632 43.9986 1.95432 43.316 1.72633 42.6207C1.66299 42.4183 1.52366 42.2538 1.473 42.0394C1.42233 41.8496 1.44766 41.6598 1.44766 41.458C1.44766 41.4074 1.473 41.3694 1.52366 41.3568C1.57433 41.3441 1.61233 41.3694 1.65033 41.4074C1.71366 41.4833 1.73899 41.5845 1.73899 41.6731C1.73899 42.3304 2.00499 42.9371 2.19432 43.5571C2.30832 43.9107 2.40965 44.265 2.51032 44.6066C2.56099 44.7711 2.61165 44.9103 2.77632 44.9982C2.94098 45.0867 2.99165 45.2892 3.11765 45.4284C3.20631 45.4031 3.20631 45.3145 3.23165 45.2512C3.50964 44.4295 3.90231 43.6709 4.39564 42.963C4.5223 42.7859 4.54763 42.6087 4.49697 42.369C4.39564 41.8755 4.30697 41.3448 4.5603 40.8899C4.7123 40.6116 4.72497 40.3592 4.72497 40.0682C4.72497 39.2843 4.73763 38.5005 4.7503 37.7167C4.7503 37.5775 4.73763 37.451 4.69963 37.3125C4.57297 36.9455 4.69963 36.6299 4.9023 36.3388C5.0543 36.1237 5.30696 36.1997 5.38296 36.4654C5.47163 36.8316 5.43363 37.2112 5.15496 37.4896C5.04096 37.6035 5.01563 37.7174 5.00296 37.8692C4.97763 38.5897 4.92696 39.2976 4.93963 40.0182C4.93963 40.3092 4.9903 40.5743 5.21763 40.802C5.45829 41.0424 5.53362 41.3834 5.60962 41.725C5.73629 42.2938 5.58429 42.1799 6.19162 42.3064C6.62161 42.395 7.03894 42.4709 7.46961 42.5595C7.48227 42.5595 7.50761 42.5721 7.52027 42.5721C7.8996 42.6607 7.91227 42.6354 7.9376 42.2431C7.9756 41.8516 8.0516 41.4846 8.30427 41.1683C8.3676 41.0924 8.43093 41.0291 8.5196 40.9659C8.76026 40.814 8.98759 40.8646 9.21559 41.0291C9.35492 41.1303 9.44359 41.2948 9.63292 41.3707C9.86092 40.7388 10.1262 40.1321 10.4302 39.5381C10.8982 38.653 11.4169 37.7933 11.9736 36.9715C12.5176 36.1624 13.0869 35.3785 13.7195 34.6327C13.8335 34.4935 13.8462 34.367 13.7829 34.1778C13.4416 33.2295 13.5802 32.3571 14.3142 31.6113C14.4282 31.4974 14.4535 31.3835 14.4155 31.2443C14.3015 30.8521 14.2509 30.4479 14.1622 30.0563C14.0862 29.702 14.0102 29.3357 13.9595 28.9814C13.8709 28.4633 13.7569 27.9319 13.6935 27.4138C13.6555 27.1108 13.5795 26.8071 13.5542 26.5034C13.5162 26.1365 13.4656 25.7702 13.4149 25.4159C13.4022 25.3653 13.4022 25.3147 13.3896 25.2768C13.3642 24.5309 13.2629 23.7977 13.2376 23.0518C13.2122 22.3945 13.2629 21.7499 13.2756 21.1053C13.2756 20.9028 13.2502 20.8395 13.0602 20.9028C12.9842 20.9281 12.9082 20.9155 12.8322 20.9281C12.3009 20.9534 11.9342 20.5865 11.9216 20.0557C11.9089 19.828 11.8962 19.5882 11.9849 19.3605C12.0356 19.2213 11.9722 19.158 11.8456 19.1454C11.7949 19.1327 11.7442 19.1201 11.7062 19.1201C10.9596 19.0821 10.2262 18.9682 9.47959 18.9682C9.12559 18.9682 8.77093 18.905 8.40426 18.9176C8.17627 18.9176 8.02494 18.9935 7.91094 19.196C7.67027 19.5882 7.39227 19.9418 7.07561 20.2708C6.94894 20.3974 6.83495 20.5239 6.67095 20.5991C6.50628 20.6877 6.41762 20.6244 6.40495 20.4346C6.37962 20.2195 6.45562 20.0297 6.53162 19.8406C6.88561 19.0062 7.34161 18.2097 7.94827 17.5271C8.06227 17.3879 8.1636 17.2487 8.22693 17.0976C8.36627 16.7433 8.56826 16.4023 8.75826 16.0733C9.13759 15.4287 9.53025 14.7841 10.1749 14.3412C10.2382 14.3033 10.2889 14.24 10.3396 14.1767C10.5929 13.8098 10.8456 13.4562 11.1116 13.0892C11.1496 13.0386 11.2256 12.988 11.2129 12.9121C11.1622 12.6843 11.3269 12.5578 11.4536 12.4193C12.1242 11.6355 12.8829 10.9276 13.6549 10.2323C13.7562 10.1437 13.8702 10.0678 13.9835 9.9919C14.0089 9.96659 14.0469 9.95394 14.0849 9.9919C14.1102 10.0299 14.1102 10.0678 14.0975 10.1058C14.0595 10.169 14.0089 10.2323 13.9582 10.2956C13.5789 10.7378 13.1862 11.168 12.7562 11.5722C12.6929 11.5848 12.6549 11.6228 12.6549 11.6861C12.4776 11.7873 12.3642 11.9644 12.1996 12.0903C11.7949 12.4066 11.4909 12.8235 11.2002 13.2531C11.0102 13.5314 10.8082 13.8091 10.6182 14.0875C10.5549 14.1887 10.5169 14.2646 10.5296 14.4038C10.5549 14.6569 10.4156 14.8966 10.2889 15.0991C10.0229 15.5286 9.73225 15.9335 9.35292 16.2625C9.18826 16.4017 9.03693 16.5535 8.79626 16.5155C8.73293 16.5029 8.69493 16.5408 8.66959 16.6041C8.61893 16.718 8.53026 16.8192 8.5176 16.9451C8.53026 16.9577 8.54293 16.983 8.5556 16.983C8.85893 16.9704 8.90959 17.0083 8.85893 17.2994C8.80826 17.5904 8.69426 17.8681 8.5556 18.1338C8.35293 18.5387 8.35293 18.526 8.78359 18.5513C9.49225 18.5766 10.2002 18.5893 10.9089 18.6652C11.2756 18.7032 11.6429 18.7285 12.0096 18.7791C12.2122 18.8044 12.3129 18.7285 12.4016 18.564C12.6802 18.0705 13.0849 17.6789 13.5655 17.3759C13.8189 17.2241 14.0842 17.1355 14.3882 17.1229C14.8689 17.1102 15.1475 17.3253 15.2862 17.7422C15.3369 17.9067 15.4002 17.9447 15.5522 17.8561C15.7295 17.7549 15.9062 17.6283 16.0835 17.5145C17.0828 16.9078 18.1202 16.3517 19.1708 15.8203C19.9422 15.4287 20.7268 15.0618 21.5241 14.7208C22.2075 14.4298 22.9155 14.1521 23.6368 13.9243C23.8901 13.8358 24.1555 13.7598 24.4088 13.6839C24.5354 13.646 24.5861 13.57 24.5861 13.4309C24.5481 12.6723 24.9401 12.1036 25.4714 11.6102C26.1548 10.9782 26.9641 10.5986 27.8881 10.4474C28.2421 10.3841 28.6094 10.3968 28.9634 10.4601C29.1027 10.4854 29.1787 10.4601 29.2541 10.3462C29.8361 9.54971 30.5447 8.86711 31.2654 8.19717C32.0754 7.43865 32.9354 6.7434 33.808 6.04815C33.9474 5.94692 34.074 5.83305 34.2 5.73182C34.1747 5.64325 34.124 5.60529 34.0607 5.56733C33.7194 5.4155 33.694 5.02392 33.934 4.77086C34.1367 4.55576 34.3767 4.40392 34.6427 4.29071C34.8074 4.22744 34.9587 4.15153 35.1233 4.08826C35.0347 3.80989 34.946 3.54485 34.8953 3.27913C34.8827 3.17791 34.8447 3.08934 34.8573 2.98811C34.87 2.76036 34.87 2.53327 34.592 2.45735C34.63 2.29286 34.7567 2.2549 34.87 2.20429C34.946 2.17898 34.984 2.12837 34.9587 2.0398C34.9333 1.96388 34.87 1.97654 34.8193 1.97654C34.6547 1.96388 34.49 2.02715 34.326 2.02715C34.1867 2.0398 34.0354 2.0398 33.896 2.0398C33.82 2.0398 33.744 2.02715 33.7314 1.95123C33.7187 1.86266 33.8074 1.8247 33.8707 1.79939C33.972 1.76144 34.086 1.72348 34.1994 1.69817C35.0593 1.48307 35.9327 1.30659 36.8307 1.30659C36.9193 1.30659 37.0707 1.23067 37.096 1.38251C37.1213 1.50904 36.9567 1.49639 36.8807 1.53435C36.628 1.64822 36.3493 1.71149 36.0713 1.74945C35.894 1.77475 35.7427 1.85067 35.5653 1.86333C35.5147 1.87598 35.4767 1.90128 35.4893 1.96455C35.502 2.00251 35.54 2.01516 35.578 2.00251C36.1347 1.87598 36.6913 1.86333 37.248 1.80006C37.8427 1.7368 38.45 1.69884 39.0446 1.86333C39.0573 1.86333 39.0826 1.87598 39.108 1.87598C39.1713 1.88863 39.222 1.91394 39.2346 1.9772C39.2473 2.06577 39.184 2.11639 39.1333 2.14169C38.9433 2.23026 38.7413 2.31883 38.526 2.33149C38.2353 2.36945 37.9567 2.44536 37.6787 2.47067C36.9827 2.54659 36.2873 2.63516 35.5913 2.62251H35.414C35.3 2.62251 35.262 2.67312 35.262 2.787V2.92618C35.3 3.24251 35.3633 3.55817 35.49 3.84919C35.5407 3.96306 35.604 3.97572 35.718 3.96306C36.148 3.87449 36.578 3.86184 37.0213 3.98837C37.2867 4.06429 37.5147 4.15286 37.616 4.43056C37.654 4.53178 37.7173 4.51913 37.806 4.50648C38.2613 4.48117 38.7166 4.44321 39.16 4.36729C39.704 4.27872 40.248 4.34199 40.7793 4.2028C40.8046 4.19015 40.8426 4.2028 40.868 4.2028C41.6653 4.2028 42.4493 4.08893 43.2466 4.12689C43.4113 4.12689 43.5633 4.12689 43.6386 3.93709C43.6513 3.89913 43.7019 3.86117 43.7399 3.83587C43.9299 3.68403 43.9419 3.67138 43.7273 3.57015C43.3733 3.40566 43.0186 3.26648 42.6646 3.11531C42.5759 3.07735 42.4873 3.09 42.4113 3.10266C42.1833 3.11531 41.9433 3.11531 41.7153 3.05204C41.652 3.02674 41.5886 3.02674 41.5253 2.97613C41.3733 2.86225 41.3733 2.77368 41.5 2.64715C41.69 2.47 41.93 2.41939 42.1579 2.38143C42.4113 2.33082 42.6766 2.34347 42.9426 2.36878C43.0693 2.38143 43.2206 2.41939 43.3093 2.53327C43.3979 2.63449 43.4993 2.64715 43.6253 2.64715C44.3466 2.63449 45.0673 2.52062 45.8012 2.53327C45.8139 2.53327 45.8392 2.52062 45.8899 2.49531C45.2826 2.36878 44.6753 2.35613 44.1186 2.15368C44.1693 2.02715 44.2453 2.07776 44.3079 2.07776C44.8773 2.06511 45.4213 2.17899 45.9906 2.21694C46.4206 2.2549 46.8506 2.36878 47.2812 2.38143C47.4966 2.38143 47.6479 2.4447 47.8379 2.58388C47.6606 2.6598 47.5092 2.73572 47.3319 2.73572C47.0406 2.73572 46.7499 2.74837 46.4592 2.73572C45.5233 2.68511 44.5993 2.74837 43.6633 2.77368C43.4479 2.78633 43.2586 2.86225 43.0433 2.96347C43.2839 3.15327 43.5619 3.21653 43.8026 3.35505C43.8913 3.40566 43.9799 3.43097 44.0559 3.48158C44.1826 3.54485 44.3086 3.5575 44.4733 3.54485C45.0553 3.49423 45.6499 3.43097 46.2319 3.63342C46.2952 3.65872 46.3586 3.65872 46.4219 3.64607C46.9912 3.51954 47.5606 3.38036 48.1426 3.26648C48.4719 3.20321 48.8132 3.16526 49.1419 3.1273C49.1545 3.16526 49.1672 3.20321 49.1926 3.22852C49.1039 3.26648 49.0152 3.31709 48.9139 3.31709C48.1799 3.3677 47.4719 3.54485 46.7506 3.69668C46.5732 3.73464 46.5732 3.75995 46.6366 3.93709C46.6999 4.11423 46.6872 4.26607 46.5606 4.35397C46.4466 4.42989 46.3199 4.50581 46.1812 4.56908C45.9406 4.65765 45.7006 4.69561 45.4473 4.72091C44.9919 4.77152 44.5493 4.74622 44.1066 4.59438C43.7646 4.4805 43.4233 4.37928 43.0566 4.40459C42.9046 4.41724 42.7533 4.4805 42.6013 4.46785C42.3099 4.4552 42.0193 4.46785 41.7286 4.4805C41.172 4.50581 40.6026 4.50581 40.046 4.59438C39.5653 4.6703 39.0846 4.64499 38.604 4.74622C38.3127 4.80948 38.0093 4.80948 37.706 4.84744C37.554 4.87275 37.4273 4.92336 37.3267 5.02458C37.0733 5.2903 36.7193 5.40418 36.3907 5.51739C35.948 5.68188 35.4927 5.73249 35.0247 5.71984C34.9233 5.71984 34.8474 5.74514 34.7587 5.80841C34.3794 6.11208 33.9867 6.38978 33.62 6.69345C32.722 7.42666 31.836 8.17253 31.0141 8.98165C30.5714 9.41119 30.1407 9.85405 29.7614 10.3342C29.6221 10.5113 29.6347 10.562 29.8247 10.6758C30.5841 11.1686 30.8114 11.8765 30.4954 12.7363C30.2681 13.3303 29.8501 13.7605 29.3694 14.1394C29.2005 14.266 29.1794 14.4049 29.3061 14.5563C29.7867 15.1377 30.2801 15.7324 30.7607 16.3138C31.4061 17.0849 32.0387 17.8561 32.6834 18.6273C33.1007 19.1207 33.506 19.6262 33.9234 20.119C34.1134 20.3467 34.0754 20.3467 34.3787 20.2202C34.796 20.0557 35.2387 19.9418 35.6947 20.1063C35.8087 20.1443 35.9347 20.1443 36.0613 20.1949C36.1753 20.2329 36.264 20.1949 36.3393 20.0937C36.504 19.9039 36.6807 19.7274 36.8453 19.5376C37.5413 18.7917 38.2247 18.0585 38.92 17.3127C39.3626 16.8452 39.8053 16.377 40.2486 15.8969C40.6533 15.4547 41.058 15.0118 41.476 14.5823C41.59 14.4684 41.6153 14.3925 41.514 14.2407C41.3493 13.9876 41.3493 13.6972 41.476 13.4315C41.6533 13.1025 41.9566 12.9008 42.3359 12.8502C42.7786 12.7869 43.1839 12.8755 43.4999 13.2171C43.5759 13.3057 43.6519 13.3057 43.7653 13.2804C43.9299 13.2424 44.0819 13.1791 44.2333 13.1412C44.6759 13.0146 45.1313 12.9134 45.5746 12.7869C46.1819 12.6224 46.7766 12.4453 47.3839 12.2814C47.6999 12.1929 47.7126 12.1929 47.6999 11.8899C47.6872 11.3717 47.9526 11.0428 48.3706 10.7897C48.5352 10.6885 48.7246 10.6505 48.9145 10.5873C49.1805 10.5113 49.4459 10.4987 49.7119 10.5873C49.9019 10.6505 49.9272 10.6505 50.0532 10.486C50.6225 9.68956 51.2045 8.89308 51.7739 8.08395C51.9385 7.8562 51.9259 7.84355 51.7485 7.65442C51.7105 7.61646 51.6599 7.5785 51.6345 7.52789C51.2932 7.09835 51.3819 6.61753 51.8245 6.33983C52.2799 6.06147 53.1532 6.11208 53.5832 6.54228C53.7732 6.73208 53.9625 6.73208 54.1905 6.64351C54.4818 6.54228 54.7852 6.46636 55.0758 6.36514C55.1645 6.37779 55.2405 6.37779 55.2658 6.27657C55.6325 6.17534 55.9745 6.03616 56.3158 5.87234C56.6578 5.70785 56.7205 5.64458 56.3665 5.32892C56.358 5.32049 56.3496 5.31627 56.3411 5.31627C55.9365 5.08852 55.5318 4.84877 55.1138 4.62102C54.6078 4.35531 54.1018 4.11556 53.5958 3.8372C53.4565 3.76128 53.3305 3.73597 53.1785 3.73597C52.8118 3.73597 52.4572 3.87516 52.1032 3.92577C51.9892 3.93842 51.9892 4.01434 52.0019 4.09026C52.0145 4.21679 51.9892 4.31801 51.8625 4.38128C51.5592 4.53311 51.2552 4.55842 50.9519 4.38128C50.7112 4.2421 50.7239 4.03965 50.9519 3.88848C51.1925 3.73664 51.4452 3.73664 51.7112 3.79991C51.7999 3.82521 51.8885 3.85052 51.9892 3.83786C52.3305 3.76195 52.6599 3.69868 53.0012 3.62276C52.9252 3.44562 52.7352 3.44562 52.5965 3.38235C52.4065 3.29378 52.2299 3.1546 52.0145 3.1546C51.9765 3.05338 51.9132 3.05338 51.8245 3.09134C51.4325 3.04072 51.0399 3.06603 50.6479 3.07868V2.97746C50.9005 2.97746 51.1539 2.99011 51.4065 2.9648C51.4572 2.97746 51.5459 3.00276 51.5459 2.92685C51.5459 2.85093 51.4699 2.87623 51.4065 2.87623C50.9259 2.68644 50.4452 2.49664 49.9519 2.32017C49.4332 2.14302 48.9019 1.99119 48.3832 1.80206C47.9786 1.66287 47.5486 1.5743 47.1432 1.43512C46.8646 1.3339 46.5612 1.29594 46.2706 1.22002C45.9292 1.13145 45.5746 1.04288 45.2333 0.979611C44.8159 0.89104 44.3986 0.840428 43.9806 0.739203C43.6393 0.650632 43.2973 0.675938 42.9559 0.562061C42.7153 0.486143 42.4626 0.498796 42.2093 0.460837C41.9686 0.422878 41.7286 0.384919 41.488 0.372265C40.6533 0.321653 39.8053 0.233082 38.9706 0.195123C38.3253 0.169817 37.6927 0.157164 37.0473 0.169817C36.2887 0.18247 35.5293 0.18247 34.7827 0.258388C34.0867 0.334306 33.3787 0.384919 32.6827 0.486143C32.316 0.536755 31.936 0.587367 31.5694 0.663285C31.1394 0.739203 30.6967 0.802469 30.2667 0.903693C29.9254 0.979611 29.5834 1.04288 29.2421 1.11879C28.7614 1.22002 28.2807 1.3339 27.8128 1.47308C27.5601 1.549 27.2941 1.61226 27.0281 1.68818C26.6614 1.7894 26.2941 1.90328 25.9274 2.01716C25.4468 2.18165 24.9661 2.35879 24.4848 2.53527C24.0675 2.6871 23.6501 2.83894 23.2448 3.00276C22.5235 3.30644 21.8028 3.63475 21.0941 3.98903C19.7155 4.67163 18.3742 5.4428 17.0835 6.28989C15.6415 7.2382 14.2875 8.27442 12.9969 9.42518C11.7696 10.5127 10.6056 11.6754 9.53025 12.9141C8.60693 13.9763 7.7336 15.0884 6.93695 16.2518C6.06429 17.5284 5.26696 18.8437 4.5583 20.2215C4.02697 21.2458 3.54631 22.282 3.11631 23.3442C2.76232 24.2039 2.45832 25.0637 2.18032 25.9487C1.96499 26.6186 1.77566 27.2886 1.59833 27.9712C1.421 28.6538 1.26966 29.3364 1.11767 30.0316C0.978334 30.6889 0.864335 31.3336 0.763669 31.9909C0.662337 32.6861 0.599004 33.394 0.523005 34.0893C0.396339 35.4292 0.409006 36.7817 0.421673 38.1223C0.421673 38.7163 0.409006 39.323 0.485005 39.917C0.548338 40.3978 0.548338 40.8779 0.611671 41.3581C0.738336 42.1925 0.839669 43.027 0.991001 43.8487C1.09233 44.3795 1.29433 44.8603 1.39566 45.3911C1.44633 45.6188 1.47166 45.8466 1.497 46.0863C1.52233 46.2382 1.50966 46.39 1.56033 46.5412C1.59833 46.6424 1.56033 46.7563 1.48433 46.8448C1.37033 46.8069 1.345 46.7057 1.31966 46.6044C1.01633 46.1489 0.902335 45.5929 0.775669 45.0368C0.623671 44.4175 0.560338 43.7855 0.409006 43.1661C0.345673 42.9004 0.333007 42.6354 0.295007 42.357C0.257007 41.9774 0.181008 41.6112 0.168342 41.2322C0.168342 41.0804 0.219008 40.9159 0.117675 40.7767C0.130342 40.5743 0.105009 40.3725 0.0670092 40.1827C0.0670092 39.7785 0.0670092 39.3736 0.016343 38.9693C0.00367645 38.9061 0.00367645 38.8555 0.00367645 38.7922C0.00367645 37.8186 -0.0089901 36.8583 0.00367645 35.8847C0.00367645 35.5304 0.0543426 35.1768 0.0543426 34.8098V34.4935C0.0670092 34.291 0.117675 34.1019 0.0923423 33.8995C0.193675 33.7603 0.155675 33.5958 0.143008 33.444C0.168342 32.7867 0.307674 32.142 0.383673 31.4847C0.421673 31.1051 0.523005 30.7262 0.599004 30.3473C0.713003 29.7659 0.814336 29.1845 0.965667 28.6152C1.15567 27.8693 1.37033 27.1234 1.58566 26.3902C1.82633 25.6064 2.10432 24.8352 2.38299 24.0641C2.62365 23.3941 2.91432 22.7368 3.20565 22.0922C3.80031 20.765 4.47097 19.4624 5.21696 18.2237C6.03962 16.8585 6.92495 15.5432 7.92427 14.2919C8.54426 13.5081 9.17692 12.7369 9.84758 12.0164C10.6702 11.1313 11.5049 10.2716 12.4282 9.48778C12.7569 9.20941 13.0609 8.91905 13.3896 8.64069C13.8449 8.2611 14.3129 7.90748 14.7815 7.54054C15.4522 7.02243 16.1355 6.54162 16.8309 6.08677C17.7795 5.46744 18.7542 4.88607 19.7662 4.35464C20.6895 3.87449 21.6135 3.41898 22.5748 3.0021C23.3468 2.67312 24.1181 2.35746 24.9154 2.09175C25.5861 1.86399 26.2441 1.64956 26.9268 1.45976C27.5848 1.26996 28.2427 1.10548 28.9127 0.928999C29.2667 0.827775 29.6341 0.802469 29.9881 0.713897C30.6207 0.549408 31.2661 0.486143 31.886 0.359612C32.1894 0.296347 32.506 0.296347 32.8094 0.233082C33.138 0.169817 33.4927 0.18247 33.8214 0.131858C34.5174 0.0306337 35.188 0.0306337 35.8707 0.00532759L35.8733 0Z" fill="#fff"/>
<path d="M56.3042 24.2978C56.7596 24.2725 57.2909 24.6394 57.4555 25.1196C57.5315 25.36 57.6709 25.4359 57.8982 25.4865C58.3789 25.6004 58.8722 25.689 59.3529 25.8281C59.6815 25.9294 60.0362 25.9673 60.3648 26.0559C60.6682 26.1318 60.9848 26.1951 61.3008 26.271C61.7815 26.3849 62.2622 26.4988 62.7302 26.6253C62.9582 26.6886 63.1982 26.7392 63.4388 26.7898C63.6922 26.853 63.7048 26.8277 63.7548 26.5747C63.7802 26.4481 63.8182 26.309 63.8815 26.1958C64.0715 25.9047 64.3748 25.7529 64.8301 26.0692C64.9986 26.1873 65.1166 26.1494 65.1841 25.9553C65.3861 25.4372 65.5888 24.9058 65.7915 24.3877C66.0195 23.819 66.2468 23.2376 66.4748 22.6682C66.5001 22.6176 66.5128 22.5543 66.5381 22.5037C66.5635 22.4531 66.5888 22.3519 66.6775 22.4152C66.7408 22.4531 66.7535 22.529 66.7155 22.5923C66.6015 22.8833 66.4875 23.1863 66.3741 23.49C66.0075 24.413 65.6401 25.336 65.2735 26.2584C65.2228 26.3849 65.2355 26.5114 65.2988 26.6506C65.4508 26.9669 65.5648 27.2952 65.5521 27.6495C65.5395 27.9778 65.4635 28.2689 65.1601 28.4333C65.0461 28.4966 65.0715 28.5978 65.0968 28.6864C65.1601 28.9521 65.2361 29.2172 65.3121 29.4702C65.4388 29.8625 65.5021 30.2794 65.6535 30.6709C65.6661 30.7089 65.6661 30.7722 65.6661 30.8101C65.6661 30.8734 65.6408 30.924 65.5648 30.924C65.5015 30.924 65.4888 30.886 65.4761 30.8354C65.3875 30.5317 65.2861 30.2287 65.2101 29.9251C65.0961 29.4949 64.9955 29.0653 64.8815 28.6358C64.8561 28.5472 64.8308 28.4713 64.7295 28.4333C64.2741 28.2562 64.0335 27.8899 63.8822 27.4597C63.8188 27.2826 63.7175 27.2067 63.5655 27.1687C63.2495 27.0928 62.9202 27.0548 62.6042 26.9536C62.2755 26.8524 61.9462 26.8144 61.6175 26.7132C61.4402 26.6499 61.2635 26.6373 61.0862 26.5993C60.6055 26.4728 60.1249 26.3716 59.6442 26.2577C59.1129 26.1438 58.5942 26.0173 58.0629 25.9041C57.9615 25.8788 57.8729 25.8155 57.7589 25.8028C57.6069 25.7902 57.5062 25.8155 57.4429 25.9673C57.3162 26.2457 57.0889 26.4102 56.7975 26.4981C56.1776 26.6879 55.5196 26.1691 55.3556 25.7016C55.2669 25.4233 55.2669 25.1456 55.3556 24.8672C55.4569 24.6141 55.8236 24.2605 56.3042 24.2985V24.2978Z" fill="#fff"/>
<path d="M2.23263 30.5424C2.23263 30.9853 2.15663 31.4275 2.08063 31.8696C2.00463 32.3245 1.89064 32.78 1.75197 33.2222C1.68864 33.4373 1.61264 33.6397 1.49864 33.8415C1.44797 33.9174 1.42264 34.0187 1.32131 33.9934C1.20731 33.9681 1.18198 33.8668 1.18198 33.7656C1.16931 33.6138 1.15664 33.4493 1.16931 33.2981C1.20731 32.5396 1.32131 31.8064 1.51064 31.0732C1.58664 30.7822 1.6753 30.5045 1.77664 30.2134C1.81464 30.1249 1.83997 30.0363 1.9033 29.9477C1.95397 29.8718 2.00463 29.7959 2.10597 29.8212C2.21997 29.8465 2.23263 29.9351 2.23263 30.0236V30.5417V30.5424Z" fill="#fff"/>
<path d="M21.0829 7.86351H20.9056C20.7029 7.83821 20.6403 7.72433 20.7283 7.54719C20.7663 7.47127 20.8169 7.39535 20.8676 7.33209C21.3483 6.85194 21.9176 6.485 22.5756 6.2952C22.6896 6.25724 22.8036 6.19398 22.9296 6.20663C23.1829 6.21929 23.2709 6.35847 23.1576 6.58622C23.0436 6.81398 22.8536 6.96581 22.6643 7.10433C22.2469 7.42066 21.7916 7.6604 21.2983 7.82489C21.2096 7.86285 21.1209 7.86285 21.0829 7.86285V7.86351Z" fill="#fff"/>
<path d="M23.4499 4.51312C23.3992 4.51312 23.3486 4.51312 23.3232 4.46251C23.2979 4.39924 23.3486 4.37394 23.3866 4.34863C23.5766 4.23476 23.7659 4.12088 23.9686 4.03231C24.6645 3.74129 25.3605 3.43828 26.0812 3.21053C26.4605 3.09665 26.8279 2.98277 27.2072 2.86889C27.2705 2.85624 27.3465 2.81828 27.3845 2.90685C27.4225 2.98277 27.3719 3.03338 27.3085 3.07134C27.0425 3.23583 26.7645 3.36236 26.4859 3.48823C25.7519 3.80455 25.0059 4.08225 24.2466 4.32266C24.0059 4.39858 23.7406 4.4998 23.4492 4.51246L23.4499 4.51312Z" fill="#fff"/>
<path d="M18.8956 7.96408C18.7942 7.96408 18.7182 7.97673 18.6676 7.88816C18.6296 7.79959 18.6802 7.73632 18.7309 7.67306C18.9082 7.44531 19.1356 7.26883 19.3889 7.10434C19.7936 6.83863 20.1989 6.58623 20.6669 6.44705C20.8062 6.40909 20.9835 6.33317 21.0715 6.4597C21.1602 6.61154 20.9829 6.71276 20.8942 6.81399C20.3629 7.33209 19.7429 7.67373 19.0596 7.92679C18.9962 7.96475 18.9329 7.96475 18.8949 7.96475L18.8956 7.96408Z" fill="#fff"/>
<path d="M25.4961 32.9172V56.5384H31.4967V32.9678L25.4961 32.9172Z" fill="#fff"/>
<path d="M34.5098 32.9172V56.5384H40.5104V32.9678L34.5098 32.9172Z" fill="#fff"/>
<path d="M63.8515 56.5377L56.5802 32.9678H56.4529H50.2743H50.1469L42.875 56.5377H48.9903L53.3636 42.7206L57.7369 56.5377H63.8515Z" fill="#fff"/>
<path d="M66 32.9172V56.5384H72.0006V32.9678L66 32.9172Z" fill="#fff"/>
</g>
<defs>
<clipPath id="clip0_0_1">
<rect width="72" height="73" fill="white"/>
</clipPath>
</defs>
</svg>
